<svg width="396" height="103" viewBox="0 0 396 103" fill="none" xmlns="http://www.w3.org/2000/svg">
<path d="M240.98 91.1189C240.98 90.9963 241.028 90.8844 241.125 90.7854C241.222 90.6843 241.354 90.6348 241.525 90.6348H244.549C245.019 90.6348 245.46 90.6993 245.876 90.8263C246.293 90.9554 246.651 91.1598 246.956 91.4438C247.261 91.7279 247.501 92.1001 247.676 92.5628C247.851 93.0254 247.94 93.5848 247.94 94.2411V94.3918C247.94 95.048 247.851 95.6054 247.676 96.0615C247.501 96.5177 247.255 96.89 246.94 97.1804C246.624 97.4709 246.258 97.6818 245.837 97.8152C245.414 97.9486 244.965 98.0153 244.485 98.0153H242.324V102.34C242.324 102.508 242.254 102.633 242.116 102.717C241.978 102.801 241.824 102.842 241.652 102.842C241.481 102.842 241.327 102.801 241.189 102.717C241.051 102.633 240.98 102.508 240.98 102.34V91.1189ZM242.322 91.9022V96.8448H244.483C245.144 96.8448 245.662 96.6511 246.035 96.2595C246.408 95.87 246.594 95.274 246.594 94.4735V94.2734C246.594 93.46 246.408 92.8618 246.035 92.4788C245.662 92.0937 245.144 91.9022 244.483 91.9022H242.322Z" fill="#E9B601"/>
<path d="M258.147 102.833C257.997 102.833 257.859 102.792 257.731 102.708C257.603 102.624 257.539 102.499 257.539 102.332V91.1101C257.539 90.9423 257.609 90.8218 257.747 90.7422C257.885 90.6647 258.04 90.626 258.211 90.626C258.382 90.626 258.537 90.6647 258.675 90.7422C258.813 90.8196 258.883 90.9423 258.883 91.1101V101.563H263.251C263.4 101.563 263.509 101.63 263.579 101.764C263.649 101.897 263.682 102.041 263.682 102.198C263.682 102.355 263.647 102.499 263.579 102.633C263.509 102.766 263.4 102.833 263.251 102.833H258.149H258.147Z" fill="#E9B601"/>
<path d="M279.066 102.223C279.088 102.29 279.099 102.335 279.099 102.356C279.099 102.535 279.008 102.677 278.827 102.782C278.645 102.888 278.464 102.942 278.282 102.942C278.016 102.942 277.852 102.836 277.786 102.625L274.97 92.7077L272.17 102.625C272.096 102.836 271.935 102.942 271.69 102.942C271.498 102.942 271.313 102.883 271.131 102.767C270.95 102.651 270.859 102.509 270.859 102.341C270.859 102.32 270.861 102.298 270.868 102.283C270.874 102.266 270.876 102.246 270.876 102.225L274.123 91.1218C274.176 90.9648 274.283 90.8464 274.442 90.7625C274.603 90.6786 274.778 90.6377 274.97 90.6377C275.151 90.6377 275.318 90.6764 275.473 90.7539C275.627 90.8313 275.73 90.954 275.784 91.1218L279.064 102.225L279.066 102.223Z" fill="#E9B601"/>
<path d="M345.976 102.223C345.999 102.29 346.009 102.335 346.009 102.356C346.009 102.535 345.918 102.677 345.737 102.782C345.555 102.888 345.374 102.942 345.192 102.942C344.927 102.942 344.762 102.836 344.696 102.625L341.88 92.7077L339.081 102.625C339.006 102.836 338.846 102.942 338.6 102.942C338.409 102.942 338.223 102.883 338.042 102.767C337.86 102.651 337.77 102.509 337.77 102.341C337.77 102.32 337.772 102.298 337.778 102.283C337.784 102.266 337.786 102.246 337.786 102.225L341.033 91.1218C341.086 90.9648 341.193 90.8464 341.352 90.7625C341.513 90.6786 341.688 90.6377 341.88 90.6377C342.061 90.6377 342.228 90.6764 342.383 90.7539C342.537 90.8313 342.641 90.954 342.694 91.1218L345.974 102.225L345.976 102.223Z" fill="#E9B601"/>
<path d="M294.894 102.84C294.713 102.84 294.55 102.782 294.405 102.665C294.261 102.549 294.142 102.396 294.047 102.207L289.887 93.8086V102.34C289.887 102.508 289.817 102.633 289.679 102.717C289.541 102.801 289.386 102.842 289.215 102.842C289.044 102.842 288.889 102.801 288.751 102.717C288.613 102.633 288.543 102.508 288.543 102.34V91.1189C288.543 90.9403 288.609 90.8155 288.743 90.7424C288.877 90.6692 289.034 90.6348 289.215 90.6348C289.46 90.6348 289.654 90.7101 289.798 90.8607C289.943 91.0113 290.089 91.2308 290.239 91.5191L294.222 99.6507V91.1189C294.222 90.9511 294.292 90.8306 294.43 90.751C294.568 90.6735 294.723 90.6348 294.894 90.6348C295.065 90.6348 295.22 90.6735 295.358 90.751C295.496 90.8284 295.566 90.9511 295.566 91.1189V102.34C295.566 102.508 295.496 102.633 295.358 102.717C295.22 102.801 295.065 102.842 294.894 102.842V102.84Z" fill="#E9B601"/>
<path d="M307.174 96.139H309.67C309.821 96.139 309.934 96.1993 310.015 96.3219C310.095 96.4446 310.134 96.5844 310.134 96.7393C310.134 96.8728 310.097 96.9997 310.023 97.1224C309.949 97.245 309.831 97.3053 309.67 97.3053H307.174V101.564H312.134C312.284 101.564 312.397 101.628 312.478 101.755C312.558 101.884 312.597 102.037 312.597 102.213C312.597 102.371 312.56 102.51 312.486 102.64C312.412 102.769 312.294 102.831 312.134 102.831H306.44C306.29 102.831 306.152 102.79 306.024 102.706C305.896 102.622 305.832 102.497 305.832 102.33V91.1254C305.832 90.9575 305.896 90.8327 306.024 90.7488C306.152 90.6649 306.29 90.624 306.44 90.624H312.134C312.294 90.624 312.41 90.6886 312.486 90.8155C312.56 90.9446 312.597 91.0867 312.597 91.2416C312.597 91.4202 312.558 91.573 312.478 91.6999C312.397 91.829 312.284 91.8914 312.134 91.8914H307.174V96.1326V96.139Z" fill="#E9B601"/>
<path d="M324.708 91.9022C324.557 91.9022 324.444 91.8376 324.363 91.7107C324.283 91.5837 324.244 91.4288 324.244 91.2523C324.244 91.0974 324.279 90.9554 324.349 90.8263C324.419 90.6993 324.539 90.6348 324.71 90.6348H327.525C327.674 90.6348 327.814 90.6756 327.94 90.7596C328.068 90.8435 328.131 90.9683 328.131 91.1361V99.2999C328.131 99.967 328.043 100.533 327.868 100.996C327.69 101.458 327.449 101.833 327.14 102.123C326.831 102.414 326.468 102.622 326.052 102.749C325.635 102.876 325.194 102.941 324.724 102.941C324.2 102.941 323.724 102.865 323.293 102.715C322.861 102.564 322.494 102.355 322.189 102.089C321.886 101.822 321.651 101.501 321.486 101.129C321.321 100.757 321.238 100.341 321.238 99.8852C321.238 99.6184 321.296 99.4376 321.413 99.343C321.531 99.2483 321.696 99.201 321.91 99.201C322.081 99.201 322.236 99.2332 322.374 99.2999C322.512 99.3667 322.582 99.4958 322.582 99.6851C322.582 100.264 322.762 100.739 323.118 101.112C323.475 101.484 323.994 101.671 324.677 101.671C325.359 101.671 325.868 101.48 326.237 101.095C326.606 100.712 326.79 100.111 326.79 99.2999V91.9022H324.71H324.708Z" fill="#E9B601"/>
<path d="M358.507 90.6348C358.987 90.6348 359.437 90.6993 359.857 90.8263C360.278 90.9554 360.647 91.1641 360.962 91.4524C361.277 91.7429 361.521 92.1173 361.698 92.58C361.873 93.0426 361.962 93.6064 361.962 94.2756V99.201C361.962 99.868 361.873 100.434 361.698 100.894C361.521 101.357 361.277 101.731 360.962 102.022C360.647 102.31 360.28 102.521 359.857 102.648C359.437 102.777 358.985 102.84 358.507 102.84H355.677C355.495 102.84 355.349 102.79 355.235 102.689C355.124 102.588 355.066 102.478 355.066 102.355V91.1189C355.066 90.9963 355.122 90.8844 355.235 90.7854C355.347 90.6843 355.493 90.6348 355.677 90.6348H358.507ZM356.41 91.9022V101.57H358.507C359.169 101.57 359.684 101.379 360.059 100.993C360.432 100.608 360.618 100.012 360.618 99.1988V94.2734C360.618 93.46 360.43 92.8618 360.059 92.4788C359.686 92.0937 359.169 91.9022 358.507 91.9022H356.41Z" fill="#E9B601"/>
<path d="M375.446 102.934C374.968 102.934 374.517 102.87 374.096 102.743C373.675 102.616 373.309 102.405 372.999 102.116C372.69 101.828 372.447 101.452 372.272 100.989C372.094 100.526 372.008 99.9625 372.008 99.2933V94.2668C372.008 93.5997 372.096 93.0338 372.272 92.5712C372.447 92.1085 372.69 91.7341 372.999 91.4437C373.309 91.1553 373.673 90.9444 374.096 90.8175C374.517 90.6905 374.968 90.626 375.446 90.626C375.924 90.626 376.376 90.6905 376.798 90.8175C377.219 90.9466 377.588 91.1553 377.903 91.4437C378.219 91.7341 378.462 92.1085 378.639 92.5712C378.814 93.0338 378.903 93.5976 378.903 94.2668V99.2933C378.903 99.9604 378.814 100.526 378.639 100.989C378.462 101.452 378.219 101.826 377.903 102.116C377.588 102.407 377.221 102.616 376.798 102.743C376.378 102.87 375.926 102.934 375.446 102.934ZM377.559 94.2668C377.559 93.4534 377.371 92.8552 376.998 92.4722C376.625 92.087 376.108 91.8955 375.446 91.8955C374.784 91.8955 374.271 92.087 373.902 92.4722C373.533 92.8552 373.35 93.4556 373.35 94.2668V99.2933C373.35 100.107 373.533 100.705 373.902 101.088C374.271 101.473 374.784 101.665 375.446 101.665C376.108 101.665 376.625 101.473 376.998 101.088C377.371 100.705 377.559 100.105 377.559 99.2933V94.2668Z" fill="#E9B601"/>
<path d="M391.78 101.667C392.452 101.667 392.99 101.497 393.397 101.157C393.803 100.817 394.005 100.296 394.005 99.5946C394.005 99.0373 393.875 98.5983 393.613 98.2756C393.351 97.9528 393.025 97.686 392.638 97.473C392.248 97.2621 391.826 97.0727 391.374 96.9049C390.921 96.7371 390.5 96.5283 390.111 96.2787C389.721 96.0291 389.397 95.7064 389.136 95.3104C388.874 94.9167 388.744 94.3787 388.744 93.6988C388.744 93.0877 388.853 92.5798 389.072 92.1796C389.29 91.7794 389.571 91.4609 389.911 91.2285C390.251 90.994 390.63 90.8304 391.047 90.7358C391.463 90.6411 391.869 90.5938 392.263 90.5938C392.551 90.5938 392.856 90.6174 393.182 90.6605C393.508 90.7056 393.809 90.7724 394.085 90.8606C394.363 90.9509 394.594 91.0628 394.782 91.2027C394.967 91.3426 395.06 91.5061 395.06 91.6955C395.06 91.8289 395.011 91.9902 394.907 92.1796C394.806 92.369 394.664 92.4636 394.483 92.4636C394.386 92.4636 394.283 92.4314 394.17 92.3625C394.058 92.2958 393.92 92.2226 393.755 92.1452C393.588 92.0677 393.386 91.9946 393.147 91.9279C392.908 91.8611 392.611 91.8289 392.259 91.8289C391.96 91.8289 391.679 91.859 391.42 91.9214C391.158 91.9816 390.929 92.0806 390.731 92.214C390.533 92.3474 390.377 92.526 390.259 92.7498C390.142 92.9715 390.082 93.2447 390.082 93.5675C390.082 94.0344 390.212 94.4024 390.473 94.6692C390.735 94.936 391.059 95.162 391.448 95.3449C391.838 95.5278 392.259 95.7042 392.712 95.8699C393.166 96.0377 393.586 96.2594 393.976 96.5369C394.365 96.8167 394.689 97.1825 394.951 97.6387C395.213 98.0948 395.342 98.7016 395.342 99.459C395.342 100.059 395.254 100.58 395.079 101.021C394.903 101.46 394.66 101.826 394.351 102.114C394.042 102.405 393.673 102.618 393.248 102.758C392.821 102.898 392.351 102.966 391.84 102.966C391.329 102.966 390.861 102.902 390.44 102.775C390.02 102.648 389.661 102.487 389.369 102.291C389.076 102.095 388.849 101.891 388.688 101.673C388.528 101.456 388.449 101.258 388.449 101.081C388.449 100.914 388.509 100.746 388.633 100.572C388.754 100.399 388.89 100.313 389.041 100.313C389.158 100.313 389.278 100.382 389.402 100.522C389.523 100.662 389.684 100.817 389.882 100.989C390.08 101.161 390.327 101.318 390.626 101.456C390.925 101.596 391.308 101.665 391.778 101.665L391.78 101.667Z" fill="#E9B601"/>
<path d="M98.3572 62.3984C98.3345 62.3274 98.3242 62.222 98.3242 62.0799C98.3242 61.8454 98.3922 61.6324 98.5262 61.4452C98.6623 61.258 98.8416 61.0923 99.0684 60.9503C99.2931 60.8082 99.5363 60.7028 99.796 60.6318C100.056 60.5608 100.309 60.5264 100.557 60.5264C100.872 60.5264 101.138 60.5866 101.352 60.7028C101.567 60.8212 101.719 61.0213 101.81 61.3032L107.394 81.4351L112.943 61.3032C113.034 61.0213 113.185 60.8212 113.401 60.7028C113.615 60.5845 113.869 60.5264 114.162 60.5264C114.409 60.5264 114.669 60.5672 114.939 60.6512C115.211 60.7329 115.452 60.8448 115.667 60.9868C115.881 61.1289 116.06 61.2924 116.209 61.4818C116.355 61.6711 116.429 61.8712 116.429 62.0821C116.429 62.1531 116.407 62.2585 116.361 62.4006L109.662 85.2889C109.548 85.7128 109.272 86.0313 108.833 86.2422C108.394 86.453 107.914 86.5606 107.394 86.5606C106.875 86.5606 106.401 86.4552 105.972 86.2422C105.543 86.0291 105.261 85.7128 105.127 85.2889L98.3593 62.4006L98.3572 62.3984Z" fill="#EAEAEA"/>
<path d="M152.291 84.6798C152.313 84.7508 152.324 84.8562 152.324 84.9983C152.324 85.2328 152.256 85.4458 152.122 85.633C151.985 85.8202 151.806 85.9859 151.579 86.1279C151.355 86.27 151.111 86.3754 150.852 86.4464C150.592 86.5174 150.338 86.5518 150.091 86.5518C149.776 86.5518 149.51 86.4937 149.295 86.3754C149.081 86.2571 148.928 86.0569 148.84 85.7751L143.256 65.6431L137.706 85.7751C137.616 86.0569 137.465 86.2571 137.251 86.3754C137.036 86.4937 136.783 86.5518 136.49 86.5518C136.243 86.5518 135.983 86.511 135.713 86.427C135.441 86.3453 135.2 86.2334 134.985 86.0914C134.771 85.9494 134.592 85.7858 134.443 85.5965C134.297 85.4071 134.223 85.207 134.223 84.9961C134.223 84.9251 134.245 84.8197 134.291 84.6777L140.992 61.7893C141.106 61.3654 141.382 61.0469 141.821 60.836C142.26 60.6252 142.74 60.5176 143.26 60.5176C143.779 60.5176 144.253 60.623 144.682 60.836C145.111 61.0491 145.393 61.3654 145.527 61.7893L152.295 84.6777L152.291 84.6798Z" fill="#EAEAEA"/>
<path d="M173.511 86.3388C173.128 86.3388 172.767 86.2334 172.429 86.0204C172.091 85.8095 171.922 85.5018 171.922 85.1016V61.7183C171.922 61.2944 172.107 60.9888 172.481 60.7995C172.854 60.6123 173.264 60.5176 173.715 60.5176C174.167 60.5176 174.579 60.6123 174.95 60.7995C175.323 60.9888 175.509 61.2944 175.509 61.7183V83.0165H184.307C184.667 83.0165 184.937 83.1886 185.119 83.5286C185.298 83.8707 185.389 84.2516 185.389 84.6777C185.389 85.0779 185.298 85.4544 185.119 85.8073C184.937 86.1602 184.667 86.3367 184.307 86.3367H173.513L173.511 86.3388Z" fill="#EAEAEA"/>
<path d="M215.944 67.6184C215.921 67.3129 215.863 66.9406 215.775 66.506C215.684 66.0713 215.505 65.6582 215.233 65.2687C214.963 64.8792 214.573 64.5457 214.066 64.2617C213.559 63.9798 212.864 63.8378 211.984 63.8378C210.675 63.8378 209.671 64.2079 208.972 64.9502C208.273 65.6926 207.923 66.8395 207.923 68.3952V78.6742C207.923 80.2278 208.273 81.3768 208.972 82.1171C209.671 82.8594 210.698 83.2295 212.052 83.2295C212.909 83.2295 213.592 83.094 214.099 82.8228C214.606 82.5517 214.989 82.216 215.249 81.8158C215.509 81.4156 215.678 80.9852 215.756 80.5269C215.834 80.0686 215.896 79.6382 215.942 79.238C215.987 78.7667 216.166 78.444 216.482 78.2675C216.797 78.0911 217.203 78.0029 217.7 78.0029C218.331 78.0029 218.795 78.132 219.087 78.3923C219.38 78.6527 219.526 79.1691 219.526 79.9459C219.526 80.9121 219.341 81.8007 218.968 82.612C218.595 83.4253 218.071 84.1247 217.395 84.7142C216.719 85.3038 215.907 85.7557 214.958 86.0742C214.01 86.3926 212.963 86.5518 211.811 86.5518C210.794 86.5518 209.832 86.4098 208.917 86.1279C208.003 85.8461 207.208 85.392 206.532 84.768C205.855 84.144 205.319 83.3328 204.924 82.3301C204.528 81.3295 204.332 80.1116 204.332 78.6742V68.3952C204.332 66.96 204.53 65.7399 204.924 64.7394C205.317 63.7388 205.86 62.9254 206.548 62.3014C207.237 61.6774 208.036 61.2234 208.95 60.9415C209.863 60.6596 210.827 60.5176 211.844 60.5176C212.994 60.5176 214.043 60.6768 214.991 60.9953C215.94 61.3137 216.752 61.7548 217.428 62.3186C218.104 62.8845 218.624 63.5559 218.984 64.3327C219.345 65.1095 219.524 65.9702 219.524 66.9105C219.524 67.7109 219.378 68.236 219.085 68.4813C218.793 68.7287 218.341 68.8535 217.731 68.8535C217.191 68.8535 216.762 68.7546 216.445 68.5523C216.129 68.3522 215.96 68.0402 215.938 67.6163L215.944 67.6184Z" fill="#EAEAEA"/>
<path d="M243.38 71.9306H248.591C248.974 71.9306 249.267 72.0833 249.471 72.3889C249.673 72.6944 249.776 73.0473 249.776 73.4476C249.776 73.7768 249.679 74.1017 249.488 74.418C249.296 74.7365 248.997 74.8957 248.591 74.8957H243.38V83.0186H253.429C253.812 83.0186 254.105 83.1843 254.309 83.5135C254.511 83.8428 254.614 84.243 254.614 84.7142C254.614 85.1145 254.517 85.4846 254.326 85.8267C254.134 86.1688 253.835 86.3388 253.429 86.3388H241.382C240.999 86.3388 240.638 86.2334 240.3 86.0204C239.962 85.8095 239.793 85.5018 239.793 85.1016V61.7548C239.793 61.3546 239.962 61.0491 240.3 60.836C240.638 60.623 240.999 60.5176 241.382 60.5176H253.429C253.835 60.5176 254.134 60.6897 254.326 61.0297C254.517 61.3718 254.614 61.7419 254.614 62.1422C254.614 62.6134 254.513 63.0136 254.309 63.3429C254.105 63.6721 253.812 63.8378 253.429 63.8378H243.38V71.9263V71.9306Z" fill="#EAEAEA"/>
<path d="M288.211 86.3406C287.76 86.3406 287.354 86.2287 286.993 86.0049C286.632 85.7811 286.327 85.4347 286.08 84.9634L277.993 68.8919V85.1033C277.993 85.5035 277.808 85.8091 277.434 86.0221C277.063 86.2351 276.651 86.3406 276.2 86.3406C275.748 86.3406 275.336 86.2351 274.965 86.0221C274.594 85.8112 274.406 85.5035 274.406 85.1033V61.7566C274.406 61.309 274.592 60.9927 274.965 60.8034C275.338 60.6162 275.748 60.5215 276.2 60.5215C276.853 60.5215 277.366 60.67 277.739 60.9626C278.111 61.2574 278.5 61.8168 278.906 62.641L286.418 77.9358V61.7243C286.418 61.3004 286.603 60.9949 286.976 60.8055C287.35 60.6183 287.76 60.5236 288.211 60.5236C288.663 60.5236 289.073 60.6183 289.446 60.8055C289.819 60.9949 290.005 61.3004 290.005 61.7243V85.1076C290.005 85.5078 289.819 85.8134 289.446 86.0264C289.073 86.2394 288.663 86.3449 288.211 86.3449V86.3406Z" fill="#EAEAEA"/>
<path d="M324.864 60.5197C325.27 60.5197 325.569 60.6962 325.761 61.0491C325.952 61.402 326.049 61.7785 326.049 62.1787C326.049 62.65 325.948 63.061 325.744 63.416C325.542 63.7689 325.247 63.9453 324.864 63.9453H319.653V85.1037C319.653 85.5039 319.467 85.8095 319.094 86.0225C318.721 86.2355 318.311 86.341 317.86 86.341C317.408 86.341 316.996 86.2355 316.625 86.0225C316.252 85.8116 316.066 85.5039 316.066 85.1037V63.9453H310.822C310.439 63.9453 310.146 63.7754 309.942 63.4332C309.74 63.0932 309.637 62.6866 309.637 62.2153C309.637 61.8151 309.732 61.4321 309.925 61.0663C310.117 60.7005 310.416 60.5176 310.822 60.5176H324.864V60.5197Z" fill="#EAEAEA"/>
<path d="M349.259 71.9306H354.47C354.853 71.9306 355.146 72.0833 355.35 72.3889C355.552 72.6944 355.655 73.0473 355.655 73.4476C355.655 73.7768 355.558 74.1017 355.367 74.418C355.175 74.7365 354.876 74.8957 354.47 74.8957H349.259V83.0186H359.308C359.691 83.0186 359.984 83.1843 360.188 83.5135C360.39 83.8428 360.493 84.243 360.493 84.7142C360.493 85.1145 360.396 85.4846 360.205 85.8267C360.013 86.1688 359.714 86.3388 359.308 86.3388H347.261C346.878 86.3388 346.517 86.2334 346.179 86.0204C345.841 85.8095 345.672 85.5018 345.672 85.1016V61.7548C345.672 61.3546 345.841 61.0491 346.179 60.836C346.517 60.623 346.878 60.5176 347.261 60.5176H359.308C359.714 60.5176 360.013 60.6897 360.205 61.0297C360.396 61.3718 360.493 61.7419 360.493 62.1422C360.493 62.6134 360.392 63.0136 360.188 63.3429C359.984 63.6721 359.691 63.8378 359.308 63.8378H349.259V71.9263V71.9306Z" fill="#EAEAEA"/>
<path d="M380.289 61.7222C380.289 61.3929 380.396 61.1111 380.611 60.8744C380.825 60.6398 381.112 60.5215 381.474 60.5215H387.904C388.963 60.5215 389.969 60.6398 390.915 60.8744C391.864 61.1111 392.692 61.5091 393.403 62.0751C394.115 62.641 394.671 63.3812 395.077 64.3C395.483 65.2188 395.688 66.3614 395.688 67.7256C395.688 68.7843 395.564 69.7095 395.316 70.4992C395.067 71.2889 394.735 71.9646 394.317 72.5305C393.898 73.0964 393.397 73.5612 392.81 73.927C392.224 74.2928 391.592 74.5575 390.915 74.721L395.652 84.0102C395.743 84.1759 395.789 84.3523 395.789 84.5395C395.789 84.7762 395.72 85.0108 395.587 85.2453C395.45 85.482 395.281 85.6864 395.079 85.8629C394.877 86.0393 394.644 86.1813 394.387 86.2868C394.127 86.3922 393.874 86.446 393.626 86.446C393.039 86.446 392.567 86.0824 392.204 85.3508L387.265 75.2482H383.847V85.1033C383.847 85.5035 383.661 85.8091 383.288 86.0221C382.917 86.2351 382.505 86.3406 382.054 86.3406C381.602 86.3406 381.196 86.2351 380.835 86.0221C380.475 85.8112 380.293 85.5035 380.293 85.1033V61.72L380.289 61.7222ZM383.841 63.8417V72.2486H387.902C389.165 72.2486 390.18 71.9302 390.946 71.2954C391.713 70.6606 392.097 69.5761 392.097 68.0462C392.097 66.5163 391.713 65.4318 390.946 64.7971C390.18 64.1623 389.165 63.8438 387.902 63.8438H383.841V63.8417Z" fill="#EAEAEA"/>
<path d="M65.6499 39.0059C65.7695 38.739 65.7942 38.4249 65.6953 38.1258L65.6788 38.0741C63.6463 31.8792 61.5272 25.7144 59.4432 19.5366C57.3674 13.3568 55.1988 7.2113 53.0818 1.04863C52.9334 0.624733 52.6138 0.263235 52.1768 0.0975485C51.3894 -0.203699 50.5174 0.215896 50.2288 1.03787L50.2227 1.05724C48.1283 6.99612 46.1494 12.978 44.1066 18.9384C43.0821 21.9165 42.1091 24.9139 41.1135 27.9027L38.1492 36.8778L38.1307 36.9337C38.0317 37.235 38.0441 37.5728 38.1884 37.8805C38.1884 37.8805 50.5793 65.0057 51.6697 67.3145C50.5772 64.627 40.7197 37.3017 40.7197 37.3017L43.7355 28.8882C44.7909 25.9209 45.869 22.9644 46.8935 19.9864C48.4787 15.4009 50.0887 10.8263 51.6677 6.2387C53.3518 11.0178 55.0277 15.799 56.7551 20.563C58.9175 26.5407 61.0469 32.5312 63.2546 38.4937C62.4053 40.6713 52.6035 64.9282 51.6677 67.3167C52.6221 65.208 64.543 41.4718 65.6458 39.0123L65.6499 39.0059Z" fill="#E9B601"/>
<path d="M102.189 37.9344C100.125 37.8892 98.0579 37.9344 95.9944 37.9279C93.929 37.9279 91.8614 38.0076 89.7959 38.0441C87.7284 38.1324 85.6629 38.1861 83.5933 38.326C81.5257 38.4379 79.4561 38.6036 77.3865 38.8231C79.4437 39.1523 81.501 39.4277 83.5623 39.6494C85.6216 39.9011 87.683 40.0646 89.7423 40.2626C91.8037 40.4089 93.865 40.6004 95.9264 40.708C96.6108 40.7425 97.2931 40.7855 97.9775 40.8242C95.7677 42.5607 93.56 44.2993 91.3811 46.081L86.4812 50.0446L81.6288 54.0727C80.0044 55.4068 78.4089 56.7796 76.8072 58.1438C75.2035 59.5059 73.6039 60.8723 72.0249 62.2666C68.8462 65.0273 65.7088 67.8483 62.6126 70.7231L62.8559 71.0566C65.9417 68.9629 68.9905 66.8154 72.0084 64.6292C72.501 67.405 73.0803 70.155 73.6698 72.9007L74.7479 77.669L75.894 82.4158C76.6959 85.5681 77.4854 88.7248 78.3491 91.8599C78.8954 93.8288 79.4375 95.7998 79.992 97.7665C78.7367 97.121 77.4792 96.4819 76.2115 95.8622L72.736 94.1365L69.2317 92.4689C66.9003 91.3456 64.5359 90.2913 62.1736 89.2369C59.803 88.1976 57.4221 87.1755 55 86.2438C57.15 87.7371 59.3454 89.1401 61.5469 90.5258C63.7567 91.8965 65.9665 93.2672 68.2093 94.5711L71.5652 96.5422L74.9499 98.4551C77.1989 99.744 79.4788 100.975 81.7566 102.203C82.0823 102.378 82.4739 102.432 82.8532 102.322C83.6551 102.087 84.121 101.22 83.8983 100.385L83.888 100.351C83.047 97.2114 82.107 94.0999 81.1979 90.9798C80.2848 87.8619 79.2953 84.7655 78.3182 81.667L76.7969 77.0364L75.2076 72.4273C74.2552 69.7612 73.2926 67.0995 72.2413 64.4657C72.5443 64.2462 72.8494 64.0332 73.1504 63.8137C74.8551 62.5915 76.5392 61.3392 78.2213 60.0847C79.9055 58.8324 81.5937 57.5865 83.2552 56.3041L88.2561 52.4804L93.2095 48.5921C96.5263 46.0164 99.775 43.3526 103.048 40.7188L103.065 40.7037C103.405 40.4283 103.626 40.0001 103.636 39.5159C103.652 38.6617 103.003 37.9559 102.185 37.9365L102.189 37.9344Z" fill="#E9B601"/>
<path d="M33.7826 92.4715L30.2783 94.1391L26.8028 95.8649C25.5351 96.4846 24.2776 97.1237 23.0223 97.7692C23.5768 95.8025 24.121 93.8336 24.6652 91.8626C25.5289 88.7296 26.3205 85.5729 27.1203 82.4184L28.2664 77.6716L29.3445 72.9033C29.9608 70.0264 30.5689 67.1452 31.074 64.2338C34.2732 66.5578 37.5075 68.8343 40.781 71.0571L41.0263 70.7236C37.9301 67.8467 34.7947 65.0278 31.614 62.2671C30.035 60.8728 28.4334 59.5064 26.8317 58.1443C25.23 56.7801 23.6345 55.4073 22.0101 54.0732L17.1577 50.0451L12.2578 46.0815C10.0789 44.302 7.8712 42.5612 5.66141 40.8247C6.34579 40.7838 7.0281 40.743 7.71247 40.7085C9.7759 40.5988 11.8352 40.4094 13.8966 40.2631C15.9559 40.0652 18.0173 39.9016 20.0766 39.6499C22.1359 39.4261 24.1952 39.1507 26.2524 38.8236C24.1828 38.6063 22.1132 38.4406 20.0456 38.3265C17.976 38.1845 15.9105 38.1307 13.843 38.0446C11.7775 38.0081 9.70994 37.9284 7.64445 37.9284C5.57896 37.9327 3.51347 37.8897 1.45004 37.9349C1.01921 37.9478 0.590445 38.1522 0.308037 38.5374C-0.190814 39.2131 -0.0712549 40.1857 0.576015 40.7064L0.588383 40.715C3.85978 43.3488 7.11055 46.0148 10.4273 48.5883L15.3808 52.4766L20.3816 56.3003C22.041 57.5849 23.7314 58.8286 25.4155 60.0809C27.0976 61.3354 28.7817 62.5877 30.4865 63.8099C30.6267 63.9132 30.771 64.0122 30.9111 64.1155C29.8042 66.8633 28.7982 69.6434 27.8046 72.4256L26.2153 77.0347L24.694 81.6653C23.7169 84.7639 22.7295 87.8603 21.8143 90.9782C20.9032 94.0983 19.9653 97.2076 19.1242 100.349L19.1139 100.388C19.015 100.756 19.0459 101.163 19.2273 101.53C19.6086 102.301 20.5177 102.604 21.2557 102.206C23.5335 100.977 25.8134 99.7467 28.0623 98.4578L31.4471 96.5448L34.803 94.5738C37.0458 93.2698 39.2555 91.8991 41.4653 90.5285C43.6669 89.1427 45.8622 87.7398 48.0122 86.2464C45.5881 87.1782 43.2092 88.2003 40.8387 89.2396C38.4743 90.2939 36.112 91.3483 33.7805 92.4715H33.7826Z" fill="#E9B601"/>
</svg>
